<?xml version="1.0" encoding="UTF-8"?>
<svg version="1.1" xmlns="http://www.w3.org/2000/svg" width="144" height="144">
<path d="M0 0 C47.52 0 95.04 0 144 0 C144 47.52 144 95.04 144 144 C96.48 144 48.96 144 0 144 C0 96.48 0 48.96 0 0 Z " fill="#2B2C2B" transform="translate(0,0)"/>
<path d="M0 0 C11.69234732 10.11466927 19.69459324 22.50832827 22.35546875 37.94140625 C22.56233029 43.44622164 22.11340097 48.34101286 20.73046875 53.69140625 C20.55370605 54.38097412 20.37694336 55.07054199 20.19482422 55.78100586 C15.90651138 71.5492234 8.04368917 80.94501008 -5.86816406 88.98583984 C-18.9369963 96.01599506 -36.43117347 97.41448213 -50.8359375 94.15234375 C-53.87957186 93.22832034 -56.74085812 92.23529338 -59.64453125 90.94140625 C-61.15841431 90.36471191 -61.15841431 90.36471191 -62.70288086 89.77636719 C-65.64453125 87.94140625 -65.64453125 87.94140625 -66.78125 85.01586914 C-67.05388672 83.23297485 -67.05388672 83.23297485 -67.33203125 81.4140625 C-67.44040314 80.76180695 -67.54877502 80.10955139 -67.66043091 79.43753052 C-67.89134046 78.0308742 -68.11026947 76.62220929 -68.31842041 75.21200562 C-68.76051369 72.21858811 -69.25973848 69.23560079 -69.75662231 66.25086975 C-70.01101681 64.72085689 -70.26252116 63.19036081 -70.51119995 61.65940857 C-71.69437897 54.42753649 -73.18705084 47.28455676 -74.76953125 40.12890625 C-77.62378259 27.17034887 -77.62378259 27.17034887 -78.76953125 21.07421875 C-78.94081543 20.16905518 -79.11209961 19.2638916 -79.28857422 18.33129883 C-79.59394463 16.69485443 -79.89085117 15.05679004 -80.17626953 13.41674805 C-81.08725459 8.55798183 -82.61310677 4.42920651 -84.81103516 -0.00292969 C-86.08628515 -3.14809809 -85.9297091 -5.707754 -85.64453125 -9.05859375 C-60.05091524 -24.85039937 -22.95955419 -17.87250378 0 0 Z " fill="#EFF9FA" transform="translate(106.64453125,36.05859375)"/>
<path d="M0 0 C2.26288556 -0.03884702 4.52596175 -0.06670983 6.7890625 -0.08984375 C8.04928223 -0.106521 9.30950195 -0.12319824 10.60791016 -0.14038086 C17.16341712 0.13091729 20.01880463 3.92020957 24.25 8.4375 C29.00001552 13.73063745 30.28934853 17.82999886 30.3125 24.9375 C30.32925781 26.12214844 30.34601563 27.30679688 30.36328125 28.52734375 C29.65081539 35.33790449 25.79912051 40.35896816 21 45 C12.75182438 51.38887464 2.98829366 51.25053274 -7 51 C-7.48666753 38.80337788 -6.18501612 27.81927556 -3.5 15.9375 C-3.16115808 14.37730026 -2.82391173 12.81675311 -2.48828125 11.25585938 C-1.67707917 7.49967092 -0.84482762 3.74876209 0 0 Z " fill="#2E2F2F" transform="translate(68,61)"/>
</svg>
