<?xml version="1.0" encoding="UTF-8"?>
<svg version="1.1" xmlns="http://www.w3.org/2000/svg" width="559" height="175">
<path d="M0 0 C184.47 0 368.94 0 559 0 C559 57.75 559 115.5 559 175 C374.53 175 190.06 175 0 175 C0 117.25 0 59.5 0 0 Z " fill="#FDFEFE" transform="translate(0,0)"/>
<path d="M0 0 C0.86891373 -0.00511093 1.73782745 -0.01022186 2.6330719 -0.01548767 C5.49902273 -0.02936246 8.36473251 -0.02842854 11.23071289 -0.02612305 C13.22701608 -0.03001103 15.22331845 -0.03434591 17.21961975 -0.03910828 C21.40164879 -0.04656586 25.58359341 -0.04628246 29.765625 -0.04101562 C35.12005539 -0.03522046 40.47413993 -0.05215547 45.82851315 -0.0753603 C49.95066848 -0.0901043 54.07274064 -0.09096844 58.19491768 -0.08785057 C60.16884611 -0.08836341 62.14277924 -0.09359408 64.11668205 -0.10366249 C66.87879685 -0.11602293 69.64023941 -0.10923763 72.40234375 -0.09765625 C73.21448334 -0.10529999 74.02662292 -0.11294373 74.8633728 -0.12081909 C79.71671376 -0.07592521 83.07539807 0.56216164 87.26586914 3.2746582 C89.28896379 6.30930018 89.51667854 6.88379104 89.52656555 10.28427124 C89.53365036 11.09734238 89.54073517 11.91041351 89.54803467 12.74812317 C89.54555725 13.63650375 89.54307983 14.52488434 89.54052734 15.44018555 C89.54563828 16.37868851 89.55074921 17.31719147 89.55601501 18.28413391 C89.56993864 21.39301901 89.568952 24.50168309 89.56665039 27.6105957 C89.57053611 29.76909467 89.57487052 31.92759288 89.57963562 34.08609009 C89.58710402 38.61381507 89.58680228 43.14146209 89.58154297 47.66918945 C89.57575086 53.4721668 89.59267023 59.27482472 89.61588764 65.07774925 C89.63061901 69.53699613 89.63149743 73.996166 89.62837791 78.45543289 C89.62889153 80.59486142 89.6341369 82.73429422 89.64418983 84.87369919 C89.65652365 87.86612442 89.64978043 90.85792657 89.63818359 93.8503418 C89.64582733 94.73467392 89.65347107 95.61900604 89.66134644 96.53013611 C89.62130128 101.20420779 89.49252305 104.60302164 86.26586914 108.2746582 C81.99654642 110.86008662 77.36227737 110.55749981 72.51586914 110.53344727 C71.21008911 110.53870422 71.21008911 110.53870422 69.87792969 110.54406738 C67.00716116 110.55285287 64.13664008 110.54704676 61.26586914 110.5402832 C59.26717074 110.54163077 57.26847267 110.54357206 55.26977539 110.54608154 C51.08354569 110.54902849 46.89740141 110.54474891 42.71118164 110.53540039 C37.34774984 110.52400615 31.98451821 110.53056791 26.62109375 110.54254532 C22.49469497 110.54977546 18.36834357 110.54747067 14.24194336 110.54228973 C12.26440406 110.54095644 10.28686044 110.54258975 8.30932617 110.54724884 C5.54472471 110.55233298 2.78044656 110.54457722 0.01586914 110.53344727 C-0.79986572 110.53749573 -1.61560059 110.54154419 -2.45605469 110.54571533 C-6.64016329 110.51454049 -10.01305163 110.26810923 -13.73413086 108.2746582 C-18.06962502 103.47464681 -17.89158392 98.66754937 -17.91113281 92.4921875 C-17.91770401 91.59430511 -17.92427521 90.69642273 -17.93104553 89.77133179 C-17.95077141 86.79717934 -17.96243905 83.82307734 -17.97241211 80.84887695 C-17.97648764 79.83308878 -17.98056316 78.81730061 -17.98476219 77.77073097 C-18.00561905 72.39517037 -18.01992293 67.01963528 -18.02929688 61.64404297 C-18.0403656 56.09221229 -18.07477213 50.54078192 -18.11446857 44.98909283 C-18.14061217 40.71939854 -18.14898667 36.44980002 -18.15257835 32.18003273 C-18.15744947 30.13351548 -18.16907834 28.08700266 -18.18761635 26.04056358 C-18.21196141 23.17515682 -18.21105126 20.310791 -18.20410156 17.4453125 C-18.22331665 16.18031166 -18.22331665 16.18031166 -18.24291992 14.88975525 C-18.19608389 9.58529491 -17.40946287 6.38254982 -13.73413086 2.2746582 C-9.49444492 -0.33717665 -4.83847355 -0.01472298 0 0 Z " fill="#2A2B2A" transform="translate(58.734130859375,34.725341796875)"/>
<path d="M0 0 C7.81449871 7.14943499 12.95251125 17.59736311 13.5 28.3125 C12.87515852 37.38114522 9.28304777 46.17536267 2.9375 52.6875 C-5.48504838 59.95028438 -15.07421229 63.14936923 -26.11328125 62.94921875 C-32.3070164 62.39957603 -39.80891096 61.22173263 -45.0625 57.6875 C-45.78515625 55.8671875 -45.78515625 55.8671875 -46.125 53.5625 C-46.27324219 52.66144531 -46.42148438 51.76039062 -46.57421875 50.83203125 C-46.73535156 49.79433594 -46.89648438 48.75664063 -47.0625 47.6875 C-47.5127815 45.20685827 -47.97182342 42.72779784 -48.4375 40.25 C-48.56189453 39.58000977 -48.68628906 38.91001953 -48.81445312 38.21972656 C-49.99420048 31.91306717 -51.30603473 25.63637039 -52.6496582 19.36279297 C-53.53875038 15.2091257 -54.370586 11.05571094 -55.125 6.875 C-55.8527403 3.10517412 -57.27734508 0.09552302 -59.0625 -3.3125 C-59.0625 -4.6325 -59.0625 -5.9525 -59.0625 -7.3125 C-57.71394038 -7.96996104 -56.35825969 -8.61281975 -55 -9.25 C-54.24589844 -9.60964844 -53.49179688 -9.96929687 -52.71484375 -10.33984375 C-34.53857935 -17.00536633 -14.74381592 -11.13308549 0 0 Z " fill="#F1FBFC" transform="translate(118.0625,65.3125)"/>
<path d="M0 0 C4.55555556 0.55555556 4.55555556 0.55555556 6 2 C6.10322198 3.40125337 6.1384943 4.8076127 6.14526367 6.21264648 C6.15164352 7.10704941 6.15802338 8.00145233 6.16459656 8.92295837 C6.16570938 9.89584305 6.1668222 10.86872772 6.16796875 11.87109375 C6.17296135 13.36008934 6.17296135 13.36008934 6.17805481 14.87916565 C6.1831284 16.9833225 6.185463 19.08748743 6.18530273 21.19165039 C6.1874883 24.42021883 6.20563699 27.64844527 6.22460938 30.87695312 C6.22754332 32.91666549 6.22952811 34.95637949 6.23046875 36.99609375 C6.23765427 37.96695419 6.24483978 38.93781464 6.25224304 39.93809509 C6.24916641 40.83565018 6.24608978 41.73320526 6.24291992 42.65795898 C6.24434494 43.44992172 6.24576996 44.24188446 6.24723816 45.05784607 C6 47 6 47 4 49 C2.01773908 48.77619635 0.03340695 48.54595753 -1.9296875 48.19140625 C-4.22520819 47.97917887 -5.788474 48.39568766 -8 49 C-13.70286856 49.5391803 -18.15071311 49.34061986 -23 46 C-27.87506436 41.26226139 -29.80243626 38.01284702 -30.25 31.1875 C-30.12436685 25.97855644 -29.02938581 21.97701456 -25.18359375 18.23046875 C-20.0696994 14.32414874 -15.95484431 13.37000546 -9.578125 13.59375 C-6.82071049 14.02825168 -4.54285683 14.86577609 -2 16 C-2.02320313 15.01257813 -2.04640625 14.02515625 -2.0703125 13.0078125 C-2.08835938 11.72648437 -2.10640625 10.44515625 -2.125 9.125 C-2.14820313 7.84882812 -2.17140625 6.57265625 -2.1953125 5.2578125 C-2 2 -2 2 0 0 Z " fill="#313334" transform="translate(203,65)"/>
<path d="M0 0 C5.43721571 3.2906799 10.11267741 6.65794217 11.84765625 13.01953125 C12.58598213 20.52584437 10.66128187 25.57057081 5.91015625 31.39453125 C0.63468566 35.55096262 -4.67062002 35.51317246 -11.15234375 35.01953125 C-16.01745697 33.9138237 -19.04177386 30.7691306 -22.15234375 27.01953125 C-24.91629097 22.49670852 -24.80317316 17.16188708 -24.15234375 12.01953125 C-22.11489467 6.20454145 -18.15712471 2.64373717 -12.83984375 -0.23046875 C-8.27830613 -1.50345599 -4.34272786 -1.97826623 0 0 Z " fill="#303232" transform="translate(352.15234375,78.98046875)"/>
<path d="M0 0 C4.80373898 2.65718633 8.05016447 6.08799341 9.8125 11.375 C10.54519588 18.13742264 9.99431409 23.83761315 5.8125 29.375 C-0.32439796 34.2594698 -5.56779544 35.01791257 -13.1875 34.375 C-18.37229602 32.61412588 -21.05210732 29.8168063 -24.1875 25.375 C-26.67396647 20.28904585 -26.39049912 15.77847104 -25.1875 10.375 C-22.94890009 5.19087388 -18.85547372 2.2425816 -14.3125 -0.9375 C-9.23922614 -2.57885331 -4.76998647 -2.16407704 0 0 Z " fill="#2F3233" transform="translate(238.1875,79.625)"/>
<path d="M0 0 C4.52049994 2.45774754 7.55699234 5.73898468 9.875 10.375 C9.96972912 11.89345202 10.0048841 13.41610384 10 14.9375 C10.00386719 16.14599609 10.00386719 16.14599609 10.0078125 17.37890625 C9.875 19.375 9.875 19.375 8.875 20.375 C6.94832493 20.46248207 5.01848139 20.48197334 3.08984375 20.47265625 C1.92001953 20.46943359 0.75019531 20.46621094 -0.45507812 20.46289062 C-1.68677734 20.45451172 -2.91847656 20.44613281 -4.1875 20.4375 C-6.04084961 20.43073242 -6.04084961 20.43073242 -7.93164062 20.42382812 C-10.99614117 20.41199608 -14.06054721 20.39551173 -17.125 20.375 C-12.94470594 24.97728346 -12.94470594 24.97728346 -7.25 26.625 C-3.71828905 26.34246312 -2.83892717 25.4761049 -0.125 23.375 C2.5625 23.125 2.5625 23.125 4.875 23.375 C5.875 24.375 5.875 24.375 6.3125 26.6875 C5.875 29.375 5.875 29.375 3.0625 31.625 C-2.80800851 34.84802428 -8.23325007 35.1162857 -14.75 33.875 C-19.02703613 31.17371402 -22.85504484 26.91491031 -25.125 22.375 C-25.84972248 16.41209353 -26.16376648 10.95778112 -22.625 5.875 C-16.51708452 -1.0233516 -8.71701167 -3.88511007 0 0 Z " fill="#2F3133" transform="translate(456.125,79.625)"/>
<path d="M0 0 C3.79245637 2.64857783 6.86094673 6.2101747 8.9296875 10.34765625 C9.06384222 13.02001835 8.97287291 15.67016113 8.9296875 18.34765625 C5.9596875 18.84265625 5.9596875 18.84265625 2.9296875 19.34765625 C2.68734375 18.66058594 2.445 17.97351563 2.1953125 17.265625 C1.86015625 16.36457031 1.525 15.46351562 1.1796875 14.53515625 C0.85484375 13.64183594 0.53 12.74851562 0.1953125 11.828125 C-1.22866627 9.03730241 -2.36506644 7.89351114 -5.0703125 6.34765625 C-9.8581335 5.81567614 -11.93433795 5.62256611 -16.0078125 8.22265625 C-19.9755978 12.31067747 -19.28803565 16.23361126 -19.3203125 21.66015625 C-19.3409375 22.51544922 -19.3615625 23.37074219 -19.3828125 24.25195312 C-19.41294535 29.11464249 -19.25518679 32.40744502 -16.0703125 36.34765625 C-12.85477804 38.67614672 -9.96009873 38.89222632 -6.0703125 38.34765625 C-0.76270516 34.97936697 0.52039385 32.57203653 1.9296875 26.34765625 C2.5896875 25.68765625 3.2496875 25.02765625 3.9296875 24.34765625 C7.46540179 24.88337054 7.46540179 24.88337054 8.9296875 26.34765625 C9.60661678 31.87591205 8.47074971 35.09286052 5.4296875 39.55078125 C2.16730635 43.458842 -1.97284485 45.97498263 -7.05078125 46.5859375 C-12.93571314 46.78383786 -17.21093897 45.7448201 -22.0703125 42.34765625 C-27.95317074 36.31395549 -27.30786392 30.03466768 -27.3828125 22.03515625 C-27.41181641 21.01486328 -27.44082031 19.99457031 -27.47070312 18.94335938 C-27.52503198 12.47822572 -26.91544567 8.60126311 -23.0703125 3.34765625 C-16.11140179 -3.25438724 -8.50110759 -4.61441443 0 0 Z " fill="#2F3132" transform="translate(315.0703125,67.65234375)"/>
<path d="M0 0 C7.98291756 -0.57648976 7.98291756 -0.57648976 11.77734375 1.57421875 C12.84662109 2.62029297 12.84662109 2.62029297 13.9375 3.6875 C14.66839844 4.37199219 15.39929688 5.05648437 16.15234375 5.76171875 C19.58813618 9.92389436 20.40789565 13.82213249 20.25 19.08203125 C19.58145387 24.21103357 15.79071284 27.79895361 12 31 C6.4292286 34.05965782 1.2352675 34.31853008 -5 34 C-5.32512629 26.33514765 -4.09741566 19.41944957 -2.5 11.9375 C-2.26152344 10.78572266 -2.02304688 9.63394531 -1.77734375 8.44726562 C-1.19279852 5.62975761 -0.60019417 2.81420829 0 0 Z " fill="#2C2D2D" transform="translate(91,81)"/>
<path d="M0 0 C0.66 -0.33 1.32 -0.66 2 -1 C7.14431152 -1.2409759 11.00656212 -0.4569989 15 2.875 C17.90925892 5.55528947 18.92963562 7.57545312 19.12939453 11.61962891 C19.13052246 12.64491699 19.13165039 13.67020508 19.1328125 14.7265625 C19.13410156 15.8403125 19.13539063 16.9540625 19.13671875 18.1015625 C19.13285156 19.26429687 19.12898438 20.42703125 19.125 21.625 C19.13080078 23.38070312 19.13080078 23.38070312 19.13671875 25.171875 C19.13542969 26.28304687 19.13414062 27.39421875 19.1328125 28.5390625 C19.13168457 29.56209473 19.13055664 30.58512695 19.12939453 31.63916016 C19 34 19 34 18 35 C16.33382885 35.04063832 14.66611905 35.042721 13 35 C11.77566531 32.55133062 11.82729259 30.83370671 11.75390625 28.09765625 C11.70459961 26.63875977 11.70459961 26.63875977 11.65429688 25.15039062 C11.59321833 23.09581221 11.53591165 21.04111811 11.48242188 18.98632812 C11.44826172 18.01244141 11.41410156 17.03855469 11.37890625 16.03515625 C11.3538501 15.1419165 11.32879395 14.24867676 11.30297852 13.32836914 C11.13953104 10.72970751 11.13953104 10.72970751 9 8 C5.5 7.58333333 5.5 7.58333333 2 8 C-0.55883979 10.55883979 -0.27311938 11.60279901 -0.34375 15.15625 C-0.37339844 16.17847656 -0.40304687 17.20070313 -0.43359375 18.25390625 C-0.45550781 19.32511719 -0.47742188 20.39632812 -0.5 21.5 C-0.54326269 23.61478218 -0.59492627 25.72941447 -0.65625 27.84375 C-0.67494141 28.78412109 -0.69363281 29.72449219 -0.71289062 30.69335938 C-1 33 -1 33 -3 35 C-7.55555556 34.44444444 -7.55555556 34.44444444 -9 33 C-9.24246292 28.61876853 -9.22851955 24.23192683 -9.24023438 19.84472656 C-9.24993009 17.64089071 -9.28093522 15.43799131 -9.3125 13.234375 C-9.31903089 11.83594305 -9.32428103 10.43750442 -9.328125 9.0390625 C-9.3374707 7.76240723 -9.34681641 6.48575195 -9.35644531 5.17041016 C-9 2 -9 2 -7.67089844 0.03662109 C-5.05243359 -1.58786776 -2.90597381 -0.6182923 0 0 Z " fill="#313334" transform="translate(376,79)"/>
<path d="M0 0 C2.33882138 0.29235267 4.67284 0.62599214 7 1 C7.66 0.67 8.32 0.34 9 0 C14.01812135 -0.71687448 16.9713247 0.76426713 21.16796875 3.22265625 C25.36648251 7.29584124 26.167729 11.80231961 26.36328125 17.42578125 C26.36196515 19.3880934 26.34470696 21.35045173 26.3125 23.3125 C26.31733398 24.81393555 26.31733398 24.81393555 26.32226562 26.34570312 C26.26740009 33.73259991 26.26740009 33.73259991 24 36 C21.375 35.625 21.375 35.625 19 35 C18.97494385 34.35450195 18.9498877 33.70900391 18.92407227 33.04394531 C18.80785567 30.11244106 18.68524558 27.18123783 18.5625 24.25 C18.52318359 23.23421875 18.48386719 22.2184375 18.44335938 21.171875 C18.40146484 20.1921875 18.35957031 19.2125 18.31640625 18.203125 C18.27974854 17.30239258 18.24309082 16.40166016 18.20532227 15.47363281 C18.01693593 13.20403661 17.62633499 11.18437113 17 9 C12.9899066 8.82135369 12.9899066 8.82135369 9 9 C6.44116021 11.55883979 6.72688062 12.60279901 6.65625 16.15625 C6.62660156 17.17847656 6.59695313 18.20070313 6.56640625 19.25390625 C6.54449219 20.32511719 6.52257812 21.39632812 6.5 22.5 C6.45673731 24.61478218 6.40507373 26.72941447 6.34375 28.84375 C6.32505859 29.78412109 6.30636719 30.72449219 6.28710938 31.69335938 C6 34 6 34 4 36 C-0.55555556 35.44444444 -0.55555556 35.44444444 -2 34 C-2.11317284 31.64771681 -2.16416537 29.32588052 -2.16796875 26.97265625 C-2.17129715 26.26854111 -2.17462555 25.56442596 -2.17805481 24.838974 C-2.18312655 23.34683894 -2.18546306 21.8546925 -2.18530273 20.36254883 C-2.18748759 18.07549393 -2.20563549 15.78892247 -2.22460938 13.50195312 C-2.22754354 12.05468916 -2.22952818 10.60742289 -2.23046875 9.16015625 C-2.23765427 8.47365494 -2.24483978 7.78715363 -2.25224304 7.07984924 C-2.22882369 2.22882369 -2.22882369 2.22882369 0 0 Z " fill="#303333" transform="translate(401,78)"/>
<path d="M0 0 C2.47494085 1.48426438 4.88508695 3.01988056 7.26171875 4.65625 C6.93171875 6.30625 6.60171875 7.95625 6.26171875 9.65625 C4.57421875 10.34375 4.57421875 10.34375 2.26171875 10.65625 C1.53984375 10.181875 0.81796875 9.7075 0.07421875 9.21875 C-3.87975644 7.02209712 -7.30906596 6.95385578 -11.73828125 7.65625 C-14.5075081 8.84198025 -14.5075081 8.84198025 -15.73828125 11.65625 C-16.51969974 15.75696829 -16.94575607 19.79128033 -14.59765625 23.41796875 C-12.1262998 25.68771454 -9.95832388 26.62032467 -6.67578125 27.15625 C-3.67503195 26.83701192 -3.67503195 26.83701192 -1.23828125 25.09375 C1.99817015 23.23279044 3.72913513 23.75256582 7.26171875 24.65625 C7.13671875 26.90625 7.13671875 26.90625 6.26171875 29.65625 C0.38712521 34.25375799 -4.47407004 35.32909289 -11.73828125 34.65625 C-17.57520702 32.63577569 -20.79114369 29.01267943 -23.85546875 23.73046875 C-25.67879308 19.44646335 -25.44209141 14.8209418 -24.015625 10.43359375 C-21.57900217 5.15588843 -18.56626829 2.18489164 -13.42578125 -0.59375 C-8.35031402 -2.01015946 -4.73278394 -2.32250738 0 0 Z " fill="#313333" transform="translate(276.73828125,79.34375)"/>
<path d="M0 0 C6.20316325 3.12127421 6.20316325 3.12127421 7.40234375 6.6015625 C7.44230469 7.40980469 7.48226563 8.21804687 7.5234375 9.05078125 C6.8634375 9.71078125 6.2034375 10.37078125 5.5234375 11.05078125 C2.22628957 10.72106646 0.9007536 10.42809735 -1.4765625 8.05078125 C-5.55905226 7.44392466 -9.29899733 7.43255953 -12.9765625 9.36328125 C-15.24322555 11.91327718 -15.47797215 14.06600546 -15.7890625 17.42578125 C-15.42541223 21.64412439 -14.42771258 23.09963117 -11.4765625 26.05078125 C-8.65654923 27.46078789 -6.60648995 27.29626576 -3.4765625 27.05078125 C-1.79916388 26.06888938 -0.13188873 25.06944354 1.5234375 24.05078125 C4.3359375 23.86328125 4.3359375 23.86328125 6.5234375 24.05078125 C6.8534375 25.70078125 7.1834375 27.35078125 7.5234375 29.05078125 C1.91767856 33.90910567 -1.46889895 35.38473185 -8.98046875 35.25390625 C-13.38546644 34.89544008 -16.03196001 33.4987828 -19.13671875 30.38671875 C-23.18668302 25.58037817 -24.7699741 21.34152602 -24.4765625 15.05078125 C-23.48623218 9.54894615 -20.45541654 5.82022192 -16.4765625 2.05078125 C-11.15839755 -1.53319948 -5.95339447 -2.28182154 0 0 Z " fill="#303233" transform="translate(494.4765625,78.94921875)"/>
<path d="M0 0 C2.93453261 0.36681658 3.86437246 0.86437246 6 3 C6.1953125 5.3828125 6.1953125 5.3828125 6.125 8.125 C6.10695313 9.03507812 6.08890625 9.94515625 6.0703125 10.8828125 C6.04710937 11.58148438 6.02390625 12.28015625 6 13 C6.84304688 12.97679688 7.68609375 12.95359375 8.5546875 12.9296875 C10.19824219 12.90261719 10.19824219 12.90261719 11.875 12.875 C13.51082031 12.84019531 13.51082031 12.84019531 15.1796875 12.8046875 C18 13 18 13 20 15 C19.44444444 19.55555556 19.44444444 19.55555556 18 21 C15.81360547 21.07258946 13.62499611 21.08373783 11.4375 21.0625 C9.64119141 21.04896484 9.64119141 21.04896484 7.80859375 21.03515625 C6.88175781 21.02355469 5.95492187 21.01195313 5 21 C5.1885351 31.03507243 5.1885351 31.03507243 9.6875 39.3125 C13.18251879 41.09298127 16.18197985 42.16003557 20 43 C19.125 47.875 19.125 47.875 18 49 C12.75343603 49.41149521 9.42357554 48.88494057 5 46 C0.18225161 41.24879509 -2.21420123 37.22309617 -2.27789307 30.41427612 C-2.27182037 29.33909225 -2.27182037 29.33909225 -2.265625 28.2421875 C-2.26753845 27.49792511 -2.2694519 26.75366272 -2.27142334 25.98684692 C-2.27278104 24.41847392 -2.2691136 22.85008953 -2.26074219 21.28173828 C-2.25000613 18.87637281 -2.26066664 16.47174903 -2.2734375 14.06640625 C-2.27211642 12.54166502 -2.26955511 11.01692424 -2.265625 9.4921875 C-2.26967346 8.77134979 -2.27372192 8.05051208 -2.27789307 7.30783081 C-2.2299444 2.2299444 -2.2299444 2.2299444 0 0 Z " fill="#333536" transform="translate(508,65)"/>
<path d="M0 0 C3.1293173 0.74342897 4.94179824 2.18840477 7.12109375 4.50390625 C8.88943766 8.04059408 8.89948196 11.66342887 8.12109375 15.50390625 C6.22254864 18.2813031 4.10035924 19.96490945 1.12109375 21.50390625 C-3.1661959 22.24309412 -4.99857105 22.05167037 -8.69140625 19.75390625 C-11.64461752 16.71631751 -12.64012123 14.84707201 -13.37890625 10.69140625 C-12.76150308 6.75546105 -11.49003867 4.74960108 -8.79296875 1.8671875 C-5.87962404 -0.2078274 -3.49920473 -0.27734 0 0 Z " fill="#F7F8F9" transform="translate(347.87890625,85.49609375)"/>
<path d="M0 0 C2.85599032 0.03193599 4.3671567 0.19619293 6.7421875 1.81640625 C9.59859448 4.87098501 10.71891413 6.95720194 11.4375 11.125 C10.713062 15.03696521 9.60410478 16.70839522 6.8125 19.5 C3.04374125 22.01250583 1.28099866 22.03016086 -3.1875 21.5 C-6.16111628 19.71847933 -8.61403612 17.64692775 -10.1875 14.5 C-10.69448467 9.34565588 -10.69448467 9.34565588 -10.1875 6.5 C-7.75 3.5625 -7.75 3.5625 -5.1875 1.5 C-3.63817598 -0.04932402 -2.15061911 0.14409508 0 0 Z " fill="#F7F8F9" transform="translate(230.1875,85.5)"/>
<path d="M0 0 C2.77285075 1.52623298 4.44216655 3.24988969 6 6 C6.90550958 9.23561066 6.96056943 11.77317695 6 15 C3.31565514 18.73972831 0.4365893 20.70681851 -4.0625 21.625 C-8.47920112 20.68527636 -11.62274419 18.73653993 -14.4375 15.1875 C-15.30204969 11.82536233 -14.82327073 9.35188798 -14 6 C-10.26036524 0.45086455 -6.7217175 -1.26965775 0 0 Z " fill="#F6F9FA" transform="translate(195,86)"/>
<path d="M0 0 C2.5625 1.3125 2.5625 1.3125 4 3 C4 3.99 4 4.98 4 6 C-1.94 6 -7.88 6 -14 6 C-10.67686491 -0.64627017 -6.79995364 -0.81010278 0 0 Z " fill="#F3F5F7" transform="translate(453,86)"/>
</svg>
